<svg width="691" height="120" viewBox="0 0 691 120" fill="none" xmlns="http://www.w3.org/2000/svg">
<mask id="path-1-outside-1_88_687" maskUnits="userSpaceOnUse" x="-0.0552368" y="0" width="691" height="120" fill="black">
<rect fill="white" x="-0.0552368" width="691" height="120"/>
<path d="M629.78 117.209C621.363 117.209 613.577 115.736 606.423 112.79C599.374 109.844 593.166 105.74 587.8 100.48C582.434 95.2191 578.278 89.1167 575.332 82.1726C572.386 75.1233 570.913 67.548 570.913 59.4465C570.913 51.2399 572.386 43.6645 575.332 36.7204C578.278 29.7763 582.382 23.7266 587.642 18.5711C592.903 13.3104 599.058 9.25972 606.107 6.41896C613.262 3.47299 621.048 2 629.465 2C637.777 2 645.457 3.47299 652.506 6.41896C659.661 9.25972 665.868 13.3104 671.129 18.5711C676.495 23.7266 680.651 29.8289 683.597 36.8782C686.543 43.8223 688.016 51.3977 688.016 59.6043C688.016 67.7058 686.543 75.2811 683.597 82.3304C680.651 89.2745 676.548 95.3769 671.287 100.638C666.026 105.793 659.819 109.844 652.664 112.79C645.615 115.736 637.987 117.209 629.78 117.209ZM629.465 94.6404C636.093 94.6404 641.88 93.1674 646.825 90.2214C651.875 87.2755 655.768 83.1721 658.504 77.9115C661.239 72.5456 662.607 66.3906 662.607 59.4465C662.607 54.1859 661.818 49.4512 660.24 45.2427C658.661 40.929 656.399 37.2465 653.453 34.1953C650.507 31.0389 646.983 28.6716 642.879 27.0934C638.881 25.41 634.41 24.5683 629.465 24.5683C622.836 24.5683 616.997 26.0413 611.947 28.9872C607.002 31.828 603.161 35.8787 600.426 41.1394C597.69 46.2948 596.322 52.3972 596.322 59.4465C596.322 64.7072 597.112 69.4944 598.69 73.8082C600.268 78.1219 602.477 81.857 605.318 85.0134C608.264 88.0646 611.789 90.4319 615.892 92.1153C619.995 93.7987 624.52 94.6404 629.465 94.6404Z"/>
<path d="M504.504 73.8082L461.577 3.89385H490.301L523.285 60.3934H504.82L537.804 3.89385H565.896L522.654 73.8082H504.504ZM501.506 115.315V62.4451H526.284V115.315H501.506Z"/>
<path d="M398.303 117.209C389.886 117.209 382.1 115.736 374.945 112.79C367.896 109.844 361.688 105.74 356.322 100.48C350.957 95.2191 346.801 89.1167 343.855 82.1726C340.909 75.1233 339.436 67.548 339.436 59.4465C339.436 51.2399 340.909 43.6645 343.855 36.7204C346.801 29.7763 350.904 23.7266 356.165 18.5711C361.425 13.3104 367.58 9.25972 374.63 6.41896C381.784 3.47299 389.57 2 397.987 2C406.299 2 413.979 3.47299 421.029 6.41896C428.183 9.25972 434.391 13.3104 439.652 18.5711C445.017 23.7266 449.173 29.8289 452.119 36.8782C455.065 43.8223 456.538 51.3977 456.538 59.6043C456.538 67.7058 455.065 75.2811 452.119 82.3304C449.173 89.2745 445.07 95.3769 439.809 100.638C434.549 105.793 428.341 109.844 421.187 112.79C414.137 115.736 406.509 117.209 398.303 117.209ZM397.987 94.6404C404.615 94.6404 410.402 93.1674 415.347 90.2214C420.397 87.2755 424.29 83.1721 427.026 77.9115C429.761 72.5456 431.129 66.3906 431.129 59.4465C431.129 54.1859 430.34 49.4512 428.762 45.2427C427.184 40.929 424.922 37.2465 421.976 34.1953C419.03 31.0389 415.505 28.6716 411.402 27.0934C407.404 25.41 402.932 24.5683 397.987 24.5683C391.359 24.5683 385.519 26.0413 380.469 28.9872C375.524 31.828 371.684 35.8787 368.948 41.1394C366.213 46.2948 364.845 52.3972 364.845 59.4465C364.845 64.7072 365.634 69.4944 367.212 73.8082C368.79 78.1219 371 81.857 373.841 85.0134C376.786 88.0646 380.311 90.4319 384.414 92.1153C388.518 93.7987 393.042 94.6404 397.987 94.6404Z"/>
<path d="M257.41 69.3892V51.0821H280.925C285.87 51.0821 289.658 49.8195 292.288 47.2944C295.024 44.7693 296.391 41.3498 296.391 37.0361C296.391 33.038 295.076 29.7237 292.446 27.0934C289.816 24.4631 286.028 23.1479 281.083 23.1479H257.41V3.89385H283.924C291.289 3.89385 297.759 5.31423 303.336 8.15499C308.912 10.8905 313.278 14.7308 316.435 19.6759C319.591 24.6209 321.169 30.3024 321.169 36.7204C321.169 43.2437 319.591 48.9778 316.435 53.9228C313.278 58.7626 308.859 62.5503 303.178 65.2859C297.496 68.0214 290.815 69.3892 283.135 69.3892H257.41ZM238.471 115.315V3.89385H263.249V115.315H238.471ZM299.074 115.315L264.354 67.3375L287.08 61.1825L328.429 115.315H299.074Z"/>
<path d="M150.302 69.3892V51.0821H173.817C178.762 51.0821 182.55 49.8195 185.18 47.2944C187.916 44.7693 189.283 41.3498 189.283 37.0361C189.283 33.038 187.968 29.7237 185.338 27.0934C182.708 24.4631 178.92 23.1479 173.975 23.1479H150.302V3.89385H176.816C184.181 3.89385 190.651 5.31423 196.228 8.15499C201.804 10.8905 206.17 14.7308 209.327 19.6759C212.483 24.6209 214.061 30.3024 214.061 36.7204C214.061 43.2437 212.483 48.9778 209.327 53.9228C206.17 58.7626 201.751 62.5503 196.07 65.2859C190.388 68.0214 183.707 69.3892 176.027 69.3892H150.302ZM131.363 115.315V3.89385H156.141V115.315H131.363ZM191.966 115.315L157.246 67.3375L179.972 61.1825L221.321 115.315H191.966Z"/>
<path d="M2.94476 115.315L47.1344 3.89385H69.5448L113.261 115.315H87.0629L53.605 22.8323H62.6008L28.6694 115.315H2.94476ZM28.0382 95.1139V74.9129H88.7989V95.1139H28.0382Z"/>
</mask>
<path d="M629.78 117.209C621.363 117.209 613.577 115.736 606.423 112.79C599.374 109.844 593.166 105.74 587.8 100.48C582.434 95.2191 578.278 89.1167 575.332 82.1726C572.386 75.1233 570.913 67.548 570.913 59.4465C570.913 51.2399 572.386 43.6645 575.332 36.7204C578.278 29.7763 582.382 23.7266 587.642 18.5711C592.903 13.3104 599.058 9.25972 606.107 6.41896C613.262 3.47299 621.048 2 629.465 2C637.777 2 645.457 3.47299 652.506 6.41896C659.661 9.25972 665.868 13.3104 671.129 18.5711C676.495 23.7266 680.651 29.8289 683.597 36.8782C686.543 43.8223 688.016 51.3977 688.016 59.6043C688.016 67.7058 686.543 75.2811 683.597 82.3304C680.651 89.2745 676.548 95.3769 671.287 100.638C666.026 105.793 659.819 109.844 652.664 112.79C645.615 115.736 637.987 117.209 629.78 117.209ZM629.465 94.6404C636.093 94.6404 641.88 93.1674 646.825 90.2214C651.875 87.2755 655.768 83.1721 658.504 77.9115C661.239 72.5456 662.607 66.3906 662.607 59.4465C662.607 54.1859 661.818 49.4512 660.24 45.2427C658.661 40.929 656.399 37.2465 653.453 34.1953C650.507 31.0389 646.983 28.6716 642.879 27.0934C638.881 25.41 634.41 24.5683 629.465 24.5683C622.836 24.5683 616.997 26.0413 611.947 28.9872C607.002 31.828 603.161 35.8787 600.426 41.1394C597.69 46.2948 596.322 52.3972 596.322 59.4465C596.322 64.7072 597.112 69.4944 598.69 73.8082C600.268 78.1219 602.477 81.857 605.318 85.0134C608.264 88.0646 611.789 90.4319 615.892 92.1153C619.995 93.7987 624.52 94.6404 629.465 94.6404Z" fill="white"/>
<path d="M504.504 73.8082L461.577 3.89385H490.301L523.285 60.3934H504.82L537.804 3.89385H565.896L522.654 73.8082H504.504ZM501.506 115.315V62.4451H526.284V115.315H501.506Z" fill="white"/>
<path d="M398.303 117.209C389.886 117.209 382.1 115.736 374.945 112.79C367.896 109.844 361.688 105.74 356.322 100.48C350.957 95.2191 346.801 89.1167 343.855 82.1726C340.909 75.1233 339.436 67.548 339.436 59.4465C339.436 51.2399 340.909 43.6645 343.855 36.7204C346.801 29.7763 350.904 23.7266 356.165 18.5711C361.425 13.3104 367.58 9.25972 374.63 6.41896C381.784 3.47299 389.57 2 397.987 2C406.299 2 413.979 3.47299 421.029 6.41896C428.183 9.25972 434.391 13.3104 439.652 18.5711C445.017 23.7266 449.173 29.8289 452.119 36.8782C455.065 43.8223 456.538 51.3977 456.538 59.6043C456.538 67.7058 455.065 75.2811 452.119 82.3304C449.173 89.2745 445.07 95.3769 439.809 100.638C434.549 105.793 428.341 109.844 421.187 112.79C414.137 115.736 406.509 117.209 398.303 117.209ZM397.987 94.6404C404.615 94.6404 410.402 93.1674 415.347 90.2214C420.397 87.2755 424.29 83.1721 427.026 77.9115C429.761 72.5456 431.129 66.3906 431.129 59.4465C431.129 54.1859 430.34 49.4512 428.762 45.2427C427.184 40.929 424.922 37.2465 421.976 34.1953C419.03 31.0389 415.505 28.6716 411.402 27.0934C407.404 25.41 402.932 24.5683 397.987 24.5683C391.359 24.5683 385.519 26.0413 380.469 28.9872C375.524 31.828 371.684 35.8787 368.948 41.1394C366.213 46.2948 364.845 52.3972 364.845 59.4465C364.845 64.7072 365.634 69.4944 367.212 73.8082C368.79 78.1219 371 81.857 373.841 85.0134C376.786 88.0646 380.311 90.4319 384.414 92.1153C388.518 93.7987 393.042 94.6404 397.987 94.6404Z" fill="white"/>
<path d="M257.41 69.3892V51.0821H280.925C285.87 51.0821 289.658 49.8195 292.288 47.2944C295.024 44.7693 296.391 41.3498 296.391 37.0361C296.391 33.038 295.076 29.7237 292.446 27.0934C289.816 24.4631 286.028 23.1479 281.083 23.1479H257.41V3.89385H283.924C291.289 3.89385 297.759 5.31423 303.336 8.15499C308.912 10.8905 313.278 14.7308 316.435 19.6759C319.591 24.6209 321.169 30.3024 321.169 36.7204C321.169 43.2437 319.591 48.9778 316.435 53.9228C313.278 58.7626 308.859 62.5503 303.178 65.2859C297.496 68.0214 290.815 69.3892 283.135 69.3892H257.41ZM238.471 115.315V3.89385H263.249V115.315H238.471ZM299.074 115.315L264.354 67.3375L287.08 61.1825L328.429 115.315H299.074Z" fill="white"/>
<path d="M150.302 69.3892V51.0821H173.817C178.762 51.0821 182.55 49.8195 185.18 47.2944C187.916 44.7693 189.283 41.3498 189.283 37.0361C189.283 33.038 187.968 29.7237 185.338 27.0934C182.708 24.4631 178.92 23.1479 173.975 23.1479H150.302V3.89385H176.816C184.181 3.89385 190.651 5.31423 196.228 8.15499C201.804 10.8905 206.17 14.7308 209.327 19.6759C212.483 24.6209 214.061 30.3024 214.061 36.7204C214.061 43.2437 212.483 48.9778 209.327 53.9228C206.17 58.7626 201.751 62.5503 196.07 65.2859C190.388 68.0214 183.707 69.3892 176.027 69.3892H150.302ZM131.363 115.315V3.89385H156.141V115.315H131.363ZM191.966 115.315L157.246 67.3375L179.972 61.1825L221.321 115.315H191.966Z" fill="white"/>
<path d="M2.94476 115.315L47.1344 3.89385H69.5448L113.261 115.315H87.0629L53.605 22.8323H62.6008L28.6694 115.315H2.94476ZM28.0382 95.1139V74.9129H88.7989V95.1139H28.0382Z" fill="white"/>
<path d="M629.78 117.209C621.363 117.209 613.577 115.736 606.423 112.79C599.374 109.844 593.166 105.74 587.8 100.48C582.434 95.2191 578.278 89.1167 575.332 82.1726C572.386 75.1233 570.913 67.548 570.913 59.4465C570.913 51.2399 572.386 43.6645 575.332 36.7204C578.278 29.7763 582.382 23.7266 587.642 18.5711C592.903 13.3104 599.058 9.25972 606.107 6.41896C613.262 3.47299 621.048 2 629.465 2C637.777 2 645.457 3.47299 652.506 6.41896C659.661 9.25972 665.868 13.3104 671.129 18.5711C676.495 23.7266 680.651 29.8289 683.597 36.8782C686.543 43.8223 688.016 51.3977 688.016 59.6043C688.016 67.7058 686.543 75.2811 683.597 82.3304C680.651 89.2745 676.548 95.3769 671.287 100.638C666.026 105.793 659.819 109.844 652.664 112.79C645.615 115.736 637.987 117.209 629.78 117.209ZM629.465 94.6404C636.093 94.6404 641.88 93.1674 646.825 90.2214C651.875 87.2755 655.768 83.1721 658.504 77.9115C661.239 72.5456 662.607 66.3906 662.607 59.4465C662.607 54.1859 661.818 49.4512 660.24 45.2427C658.661 40.929 656.399 37.2465 653.453 34.1953C650.507 31.0389 646.983 28.6716 642.879 27.0934C638.881 25.41 634.41 24.5683 629.465 24.5683C622.836 24.5683 616.997 26.0413 611.947 28.9872C607.002 31.828 603.161 35.8787 600.426 41.1394C597.69 46.2948 596.322 52.3972 596.322 59.4465C596.322 64.7072 597.112 69.4944 598.69 73.8082C600.268 78.1219 602.477 81.857 605.318 85.0134C608.264 88.0646 611.789 90.4319 615.892 92.1153C619.995 93.7987 624.52 94.6404 629.465 94.6404Z" stroke="#222222" stroke-width="4" mask="url(#path-1-outside-1_88_687)"/>
<path d="M504.504 73.8082L461.577 3.89385H490.301L523.285 60.3934H504.82L537.804 3.89385H565.896L522.654 73.8082H504.504ZM501.506 115.315V62.4451H526.284V115.315H501.506Z" stroke="#222222" stroke-width="4" mask="url(#path-1-outside-1_88_687)"/>
<path d="M398.303 117.209C389.886 117.209 382.1 115.736 374.945 112.79C367.896 109.844 361.688 105.74 356.322 100.48C350.957 95.2191 346.801 89.1167 343.855 82.1726C340.909 75.1233 339.436 67.548 339.436 59.4465C339.436 51.2399 340.909 43.6645 343.855 36.7204C346.801 29.7763 350.904 23.7266 356.165 18.5711C361.425 13.3104 367.58 9.25972 374.63 6.41896C381.784 3.47299 389.57 2 397.987 2C406.299 2 413.979 3.47299 421.029 6.41896C428.183 9.25972 434.391 13.3104 439.652 18.5711C445.017 23.7266 449.173 29.8289 452.119 36.8782C455.065 43.8223 456.538 51.3977 456.538 59.6043C456.538 67.7058 455.065 75.2811 452.119 82.3304C449.173 89.2745 445.07 95.3769 439.809 100.638C434.549 105.793 428.341 109.844 421.187 112.79C414.137 115.736 406.509 117.209 398.303 117.209ZM397.987 94.6404C404.615 94.6404 410.402 93.1674 415.347 90.2214C420.397 87.2755 424.29 83.1721 427.026 77.9115C429.761 72.5456 431.129 66.3906 431.129 59.4465C431.129 54.1859 430.34 49.4512 428.762 45.2427C427.184 40.929 424.922 37.2465 421.976 34.1953C419.03 31.0389 415.505 28.6716 411.402 27.0934C407.404 25.41 402.932 24.5683 397.987 24.5683C391.359 24.5683 385.519 26.0413 380.469 28.9872C375.524 31.828 371.684 35.8787 368.948 41.1394C366.213 46.2948 364.845 52.3972 364.845 59.4465C364.845 64.7072 365.634 69.4944 367.212 73.8082C368.79 78.1219 371 81.857 373.841 85.0134C376.786 88.0646 380.311 90.4319 384.414 92.1153C388.518 93.7987 393.042 94.6404 397.987 94.6404Z" stroke="#222222" stroke-width="4" mask="url(#path-1-outside-1_88_687)"/>
<path d="M257.41 69.3892V51.0821H280.925C285.87 51.0821 289.658 49.8195 292.288 47.2944C295.024 44.7693 296.391 41.3498 296.391 37.0361C296.391 33.038 295.076 29.7237 292.446 27.0934C289.816 24.4631 286.028 23.1479 281.083 23.1479H257.41V3.89385H283.924C291.289 3.89385 297.759 5.31423 303.336 8.15499C308.912 10.8905 313.278 14.7308 316.435 19.6759C319.591 24.6209 321.169 30.3024 321.169 36.7204C321.169 43.2437 319.591 48.9778 316.435 53.9228C313.278 58.7626 308.859 62.5503 303.178 65.2859C297.496 68.0214 290.815 69.3892 283.135 69.3892H257.41ZM238.471 115.315V3.89385H263.249V115.315H238.471ZM299.074 115.315L264.354 67.3375L287.08 61.1825L328.429 115.315H299.074Z" stroke="#222222" stroke-width="4" mask="url(#path-1-outside-1_88_687)"/>
<path d="M150.302 69.3892V51.0821H173.817C178.762 51.0821 182.55 49.8195 185.18 47.2944C187.916 44.7693 189.283 41.3498 189.283 37.0361C189.283 33.038 187.968 29.7237 185.338 27.0934C182.708 24.4631 178.92 23.1479 173.975 23.1479H150.302V3.89385H176.816C184.181 3.89385 190.651 5.31423 196.228 8.15499C201.804 10.8905 206.17 14.7308 209.327 19.6759C212.483 24.6209 214.061 30.3024 214.061 36.7204C214.061 43.2437 212.483 48.9778 209.327 53.9228C206.17 58.7626 201.751 62.5503 196.07 65.2859C190.388 68.0214 183.707 69.3892 176.027 69.3892H150.302ZM131.363 115.315V3.89385H156.141V115.315H131.363ZM191.966 115.315L157.246 67.3375L179.972 61.1825L221.321 115.315H191.966Z" stroke="#222222" stroke-width="4" mask="url(#path-1-outside-1_88_687)"/>
<path d="M2.94476 115.315L47.1344 3.89385H69.5448L113.261 115.315H87.0629L53.605 22.8323H62.6008L28.6694 115.315H2.94476ZM28.0382 95.1139V74.9129H88.7989V95.1139H28.0382Z" stroke="#222222" stroke-width="4" mask="url(#path-1-outside-1_88_687)"/>
</svg>
